<?xml version="1.0" encoding="UTF-8"?><svg id="a" xmlns="http://www.w3.org/2000/svg" viewBox="0 0 950 950"><rect width="950" height="950" fill="#fefffe"/><rect x="474.54" y="475.12" width="432.75" height="432.38" fill="#ff8305"/><rect x="42.5" y="475.12" width="432.75" height="432.38" fill="#02158b"/><rect x="474.75" y="42.5" width="432.75" height="432.38" fill="#e9042b"/><rect x="42.5" y="42.5" width="432.75" height="432.38" fill="#ff8305"/><path d="M880.27,712.96c-19.61,16.72-39.69,32.76-62.9,46.91-.65.4-1.31.8-1.96,1.2-5.9,3.6-11.87,7.09-17.73,10.74-10.73,5.62-21.6,12.54-34.09,12.88-4.4.18-8.38-2.9-9.76-6.97-4.18-13.2-3-27.36-.99-40.81,5.59-9.13,13.7-16.38,20.13-24.9,4.96-6.07,9.27-12.62,14-18.85,6.76-8.62,13.82-16.97,20.6-25.56,3.12-4.94,7.07-9.26,10.84-13.71,22.64-32.04,48.86-61.91,66.16-97.41,3.56-7.04,6.09-14.8,5.33-22.77.46-6.7-5.03-11.86-10.22-15.11-9.38-3.51-20.08-1.55-28.91,2.7-17.04,7.13-30.26,20.47-42.73,33.65-13.21,12.44-21.03,29.04-31.17,43.79-14.73,25.51-27.67,52.18-36.83,80.22-3.18,10.1-6.9,20.05-9.09,30.44-1.94,7.46-2.59,15.76-8.3,21.52-14.61,20.9-34.89,37.22-57.12,49.43-3.49,2.18-7.69,2.1-11.63,2.04-2.92-13.72-1.69-28.01.83-41.7.83-5.79,5.32-9.84,8.89-14.09,4.48-5.58,8.64-11.42,13.17-16.97,11.63-12.99,20.94-27.85,32.49-40.92,3.3-3.62,6.02-7.69,8.79-11.71,8.66-11.72,18.16-22.77,26.61-34.66,5.63-6.82,9.66-14.74,15.13-21.68,7.69-10.6,14.53-21.77,21.45-32.87,4.96-9.91,10.78-19.98,11.61-31.27.75-8.07-4.58-15.7-11.72-19.03-10.82-2.67-22.45.29-31.65,6.3-11.31,7.06-22.13,15.28-31.33,24.98-.58.61-1.14,1.22-1.69,1.81-16.46,18.66-29.51,39.71-41.62,61.34-.46.72-.92,1.45-1.39,2.16-.47.72-.94,1.43-1.42,2.14-4.46,8.06-7.73,16.7-12.19,24.76-5.25,13.99-12.13,27.35-16.82,41.56-3.42,9.57-6.28,19.33-9.11,29.09-1.79,5.84-1.58,12.74-6,17.45-.48.53-.97,1.04-1.47,1.56-.5.51-1,1.02-1.51,1.53-6.28,6.54-12.3,14.56-19.23,20.1-.6.55-1.2,1.1-1.8,1.65-2.4,2.19-4.79,4.37-7.04,6.64-.5.49-.99.98-1.49,1.47-2.5,2.45-5.06,4.83-7.94,6.85-13.15,10.73-29.28,21.17-47.07,18.8-4.96-.22-8.66-3.81-12.4-6.62,1.65-2.16,3.79-3.89,6.11-5.31,10.07-6.17,19.55-13.23,29.25-19.93,12.81-9.32,24.56-20,37.14-29.61,6.16-4.78,11.2-10.84,15.47-17.32,5.4-8.11,5.62-19.13,1.53-27.82-2.64-6.08-8.6-9.62-13.74-13.37-13.66-8.41-31.42-6.66-45.4.08-11.22,4.81-19.34,14.14-27.93,22.43-13.28,13.01-23.38,29.16-29.56,46.65-3.45,9.79-4.24,20.28-3.65,30.59-7.37,3.66-14.53,7.76-22.12,11-13.56,5.4-27.82,11.09-42.72,9.58-7.03-.46-14.11-4.74-16.48-11.57-3.9-10.99-1.44-22.99,2.33-33.64,5.96-14.84,15.38-29.2,29.66-37.12,8.04-5.31,17.81-7.47,27.37-7.16,7.29,1.09,15.1,3.62,22.29.82,7.62-5.06,7.65-18.54-.65-23.01-6.62-3.53-14.3-4.08-21.63-4.82-11.71-.3-23.59,1.84-34.1,7.13-5.11,2.44-9.65,6.07-15.12,7.75-15.88,5.1-32.85,8.06-49.52,5.65-3.75-.33-5.15-4.29-6.98-6.97,10.51-1.31,21.1-.63,31.64-.38,10.28.07,16.02-13.9,9.13-21.3-4.88-5.95-13.23-4.81-20.06-5.3-16.72-.23-35.03.22-49.12,10.41-3.16,2.37-7.25.34-10.78.3-40.4-4.18-80.86,15.15-106.78,45.62-10.65,12.81-19.49,27.82-22.08,44.49-1.89,12.75.78,26.87,9.92,36.43,10.65,11.79,27.12,16.08,42.51,16.44,25.88,1.03,50.65-9.72,71.65-24.03,15.8-11.18,30.22-24.71,40.67-41.08,5.42-8.6,9.83-17.98,11.71-28.01,7.28.49,14.61.82,21.88-.03-8.23,15.99-14.07,33.91-12.27,52.1,1.28,14.2,7.89,28.89,20.5,36.44,13.68,9.01,31.17,9.24,46.72,5.99,5.89-.93,11.39-3.31,17.17-4.68,6.38-2.49,12.79-4.94,18.96-7.94,5.14-2.25,9.85-5.69,15.55-6.38,5.33,9.9,15.73,15.42,25.76,19.48,17.32,3.72,35.86-.11,50.7-9.68,9.73-5.35,18.05-12.77,26.85-19.47,5.37-4.02,9.79-9.2,15.5-12.78,1.31,11.87,3.9,25.61,14.57,32.72,7.8,6.03,18.52,5.66,27.67,3.61,16.32-5.16,29.14-16.93,42.99-26.42,5.11-3.25,8.56-8.68,14.19-11.14,1.73,11.5,5.71,23.32,14.63,31.3,6.09,5.04,13.22,10.07,21.55,9.54,8.66.75,17.1-1.17,25.13-4.22.89-.34,1.78-.69,2.66-1.06,2.83-.83,5.54-1.93,8.17-3.19.88-.42,1.75-.86,2.62-1.3,4.01-1.85,7.78-3.77,11.39-5.86.6-.35,1.2-.7,1.79-1.06,5.89-3.8,11.91-6.81,18.2-11.63.72-.47,1.45-.93,2.17-1.39.66-.42,1.31-.85,1.97-1.27.65-.43,1.31-.85,1.96-1.28,12.45-8.14,25.12-16.75,37.4-25.72.65-.47,1.29-.95,1.94-1.43,7.52-6.2,15.55-12.22,22.64-18.21.52-.48,1.05-.96,1.56-1.45,2.59-2.44,5.12-4.96,7.55-7.57v-43.12c-.92,2.46-2.43,4.69-4.09,6.83-.55.72-1.12,1.42-1.68,2.13-4.97,7.39-12.13,13.06-18.28,19.14-.56.55-1.11,1.11-1.65,1.67-.65.53-1.33,1.08-2.03,1.62ZM788.13,634.54c6.65-14.24,14.98-27.58,23.44-40.8,1.24-1.93,2.55-3.82,3.93-5.66.46-.61.92-1.22,1.4-1.82.38-.5.78-1,1.18-1.5.4-.5.81-1,1.23-1.51,3.91-4.5,7.71-9.58,11.91-14.48.47-.54.94-1.09,1.42-1.63,3.93-4.94,8.95-8.96,14.07-12.53.54-.42,1.09-.83,1.64-1.23,2.76-2,5.68-3.77,8.88-5.06-.62,3.81-2.15,7.23-4.04,10.49-.38.65-.77,1.3-1.18,1.94-5.39,8.46-10.41,15.48-15.29,23.47-.46.65-.93,1.3-1.39,1.95-4.2,5.83-8.6,11.54-12.69,17.45-5.1,5.91-8.59,12.99-13.85,18.76-11.76,14.92-22.87,30.44-35.38,44.76,2.92-11.68,9.61-21.83,14.73-32.6ZM702.73,616.97c3.09-5.04,6.43-9.53,9.48-14.09.44-.65.87-1.31,1.29-1.96,8.59-12.64,16.62-27.68,29.16-38.14.52-.52,1.05-1.06,1.57-1.59,4.21-4.29,8.48-8.68,14.25-10.69-6.21,17.24-18.38,31.23-28.63,46.18-.47.68-.93,1.36-1.39,2.05-7.39,9.61-14.41,19.64-21.78,29.35-.48.6-.97,1.2-1.44,1.8-8.11,10.25-15.19,21.38-24.26,30.8,5.43-12.67,11.4-25.12,18.05-37.2.39-.71.78-1.42,1.18-2.13.4-.71.8-1.42,1.22-2.15.42-.73.85-1.47,1.3-2.23ZM340.77,734.91c-12.47,17.53-29.9,31.28-49.15,40.76-15.29,7.28-33.03,11.28-49.71,6.77-6.04-1.61-12.46-5.59-13.15-12.39-1.17-12.1,5.25-23.36,11.99-32.92,21.51-28.21,58.42-46.76,94.19-39.64,2.43,3.95,5.36,7.68,9.39,10.09,2.1,1.65,4.93,2.53,6.49,4.78-.76,8.39-5.38,15.76-10.05,22.56ZM565.47,694.11c6.99-5.01,16.12-5.65,24.37-4.25,3.75,1.4,3.97,6.62,1.1,9.03-.59.56-1.18,1.12-1.77,1.67s-1.19,1.11-1.79,1.66c-12.91,10.42-24.95,21.45-37.95,31-.61.43-1.22.83-1.85,1.22-7.25,4.38-13.81,9.99-21.62,13.41,5.37-22.23,21.26-40.57,39.5-53.73ZM44.95,564.75c31.04-23.88,70.05-37.9,109.38-37.08,23.53.64,47.56,6.04,67.32,19.25,12.34,8.17,22.94,19.82,27.27,34.19,5.14,16.2,1.01,34.29-8.78,47.89-7.4,11.49-18.78,19.38-28.46,28.75-19.79,18.55-38.81,38.56-51.85,62.55-8.01,14.67-13.73,31.89-10.22,48.71,3.28,16.81,15.5,30.22,28.79,40.24,26.74,19.32,58.51,30.26,90.33,37.94,7.8,2.08,16,2.46,23.65,5.08,8.94,3.76,10.25,17.68,2.3,23.17-3.67,2.99-8.63,3.5-13.13,2.4-29.46-5.24-58.41-13.74-85.64-26.19-20.08-9.52-39.42-21.66-54.1-38.54-12.32-14.48-20.55-32.85-20.91-52.01-.67-22.46,8.08-43.98,19.64-62.84,15.85-25.16,36.58-46.85,58.73-66.57,9.61-8.47,20.54-17.37,23.72-30.38,2.62-10.36-3.23-20.6-10.93-27.14-13.07-11.04-30.07-16.01-46.75-18.25-28.61-3.4-57.7,4.08-82.75,17.82-14.9,7.68-27.85,18.86-40.57,29.6v-36.07s1.62-1.36,2.95-2.5ZM90.76,640.37c4.83-2.1,10.75-1.43,14.67,2.21,6.24,4.74,5.66,13.5,5.85,20.5-1.54,28.33-6.68,56.37-13.26,83.92-4.03,16.08-8.78,32.07-15.61,47.21-4.24,9.73-19.91,10.14-24.52.53-4.29-7.68,1.28-15.53,3.79-22.73,10.54-29.47,16.38-60.4,20.35-91.37.76-8.3,2.36-16.73.91-25.05-1.34-6.07,2.09-12.81,7.82-15.22Z" fill="#fefffe"/></svg>